# xmcd
#
# Track frame offsets:
#	150
#	14715
#	29402
#	43122
#	56740
#	70630
#	83732
#	98182
#	110765
#	126962
#	140180
#	155525
#	170255
#	183587
#	196952
#	211190
#	221797
#	238600
#
# Disc length: 3389 seconds
#
# Revision: 0
# Processed by: cddbd v1.5.2PL0 Copyright (c) Steve Scherf et al.
# Submitted via: EasyCDDAExtractor 16.0.6.1
#
DISCID=0f0d3b12
DTITLE=Συλλογικός δίσκος - Τραγούδια και σκοποί διάφορες περιοχές Ελλάδας 2
DYEAR=1996
DGENRE=Παραδοσιακή
TTITLE0=Σαμίου Δόμνα - Ο ξένος μέσ' στην ξενητειά [καλαματιανό Δωδεκαννήσου]
TTITLE1=Αηδονίδης Χρόνης - Ο ήλιος βασιλεύει [αντικριστό Θράκης]
TTITLE2=Καρζή Αμαλία - Κλέφτες μπήκαν στην αυλή [συρτό Πελοποννήσου]
TTITLE3=Συμεωνίδης Αλέκος - Τραγούδι της σούσας [συρτόο Κύπρου]
TTITLE4=Γκινής Παντελής-ομάδα ανδρών - Ντιρλαντά [σφουγγ. τσιμάρισμα Καλύμνου,
TTITLE4=καπετάν ΠΓκινής κ τσούρμο]
TTITLE5=Άνευ ερμηνευτού - Λέρικος ίσος χορός [οργανικό]
TTITLE6=Παπαθανασίου Λάμπρος - Ο Αριστείδης [καγκέλι ντρέσκο Ρούμελης]
TTITLE7=Μπαϊρακτάρη-Κουταλακίδου Ελένη - Κρομέτ'κα τραγωδίας [χορός τικ Πόντου
TTITLE7=]
TTITLE8=Κοτζιάς Αλέκος-χορωδία - Η Πρωτομαγιά [συρτό Ύδρας]
TTITLE9=Χριστοδουλάκη-Παπαστεφάνου Αμαλία - Περβολαριά [καλαματιανό]
TTITLE10=Αηδονίδης Χρόνης - Παλληκάρια μου [ζωναράδικο Θράκης]
TTITLE11=Παπαθανασίου Λάμπρος - Φέξε μου φεγγαράκι μου [τσάμικο Ρούμελης]
TTITLE12=Χριστοδουλάκη-Παπαστεφάνου Αμαλία - Μέρα μέρωσε [σκοπός της αυγής-Δωδ
TTITLE12=εκανήσου]
TTITLE13=Άνευ ερμηνευτού - Σούστα [οργ., Έμπονας]
TTITLE14=Μπαϊρακτάρη-Κουταλακίδου Ελένη - Τ' αρνόπο μ' [χορός ομάλ Πόντου]
TTITLE15=Άνευ ερμηνευτού - Μπαλαριστός [οργ., χορός Μυκόνου]
TTITLE16=Χορωδία - Το γυάλινο πηγάδι [καλαματιανό Ύδρας]
TTITLE17=Μπαϊρακτάρη-Κουταλακίδου Ελένη - Αρχαγγελίτικος [αργός σκοπός Ρόδου]
EXTD=
EXTT0=
EXTT1=
EXTT2=
EXTT3=
EXTT4=
EXTT5=
EXTT6=
EXTT7=
EXTT8=
EXTT9=
EXTT10=
EXTT11=
EXTT12=
EXTT13=
EXTT14=
EXTT15=
EXTT16=
EXTT17=
PLAYORDER=
